HIERARCHY
ROOT Hips
{
	OFFSET 0.00000 0.00000 0.00000
	CHANNELS 6 Xposition Yposition Zposition Zrotation Yrotation Xrotation 
	JOINT LHipJoint
	{
		OFFSET 0 0 0
		CHANNELS 3 Zrotation Yrotation Xrotation
		JOINT LeftUpLeg
		{
			OFFSET 1.46561 -1.72757 0.83774
			CHANNELS 3 Zrotation Yrotation Xrotation
			JOINT LeftLeg
			{
				OFFSET 2.48915 -6.83890 0.00000
				CHANNELS 3 Zrotation Yrotation Xrotation
				JOINT LeftFoot
				{
					OFFSET 2.60555 -7.15868 0.00000
					CHANNELS 3 Zrotation Yrotation Xrotation
					JOINT LeftToeBase
					{
						OFFSET 0.19248 -0.52884 2.26738
						CHANNELS 3 Zrotation Yrotation Xrotation
						End Site
						{
							OFFSET 0.00000 -0.00000 1.17015
						}
					}
				}
			}
		}
	}
	JOINT RHipJoint
	{
		OFFSET 0 0 0
		CHANNELS 3 Zrotation Yrotation Xrotation
		JOINT RightUpLeg
		{
			OFFSET -1.46918 -1.72757 0.83774
			CHANNELS 3 Zrotation Yrotation Xrotation
			JOINT RightLeg
			{
				OFFSET -2.49034 -6.84216 0.00000
				CHANNELS 3 Zrotation Yrotation Xrotation
				JOINT RightFoot
				{
					OFFSET -2.65971 -7.30750 0.00000
					CHANNELS 3 Zrotation Yrotation Xrotation
					JOINT RightToeBase
					{
						OFFSET -0.19227 -0.52827 2.30785
						CHANNELS 3 Zrotation Yrotation Xrotation
						End Site
						{
							OFFSET -0.00000 -0.00000 1.18972
						}
					}
				}
			}
		}
	}
	JOINT LowerBack
	{
		OFFSET 0 0 0
		CHANNELS 3 Zrotation Yrotation Xrotation
		JOINT Spine
		{
			OFFSET 0.02432 2.19909 -0.28000
			CHANNELS 3 Zrotation Yrotation Xrotation
			JOINT Spine1
			{
				OFFSET 0.03714 2.21816 -0.15261
				CHANNELS 3 Zrotation Yrotation Xrotation
				JOINT Neck
				{
					OFFSET 0 0 0
					CHANNELS 3 Zrotation Yrotation Xrotation
					JOINT Neck1
					{
						OFFSET -0.01896 1.56165 0.21681
						CHANNELS 3 Zrotation Yrotation Xrotation
						JOINT Head
						{
							OFFSET 0.02744 1.56009 0.06764
							CHANNELS 3 Zrotation Yrotation Xrotation
							End Site
							{
								OFFSET 0.01212 1.60574 0.00298
							}
						}
					}
				}
				JOINT LeftShoulder
				{
					OFFSET 0 0 0
					CHANNELS 3 Zrotation Yrotation Xrotation
					JOINT LeftArm
					{
						OFFSET 3.05595 1.48048 -0.60794
						CHANNELS 3 Zrotation Yrotation Xrotation
						JOINT LeftForeArm
						{
							OFFSET 5.20607 -0.00000 -0.00000
							CHANNELS 3 Zrotation Yrotation Xrotation
							JOINT LeftHand
							{
								OFFSET 3.39961 -0.00000 0.00000
								CHANNELS 3 Zrotation Yrotation Xrotation
								JOINT LeftFingerBase
								{
									OFFSET 0 0 0
									CHANNELS 3 Zrotation Yrotation Xrotation
									JOINT LeftHandIndex1
									{
										OFFSET 0.51969 -0.00000 0.00000
										CHANNELS 3 Zrotation Yrotation Xrotation
										End Site
										{
											OFFSET 0.41899 -0.00000 0.00000
										}
									}
								}
								JOINT LThumb
								{
									OFFSET 0 0 0
									CHANNELS 3 Zrotation Yrotation Xrotation
									End Site
									{
										OFFSET 0.42539 -0.00000 0.42539
									}
								}
							}
						}
					}
				}
				JOINT RightShoulder
				{
					OFFSET 0 0 0
					CHANNELS 3 Zrotation Yrotation Xrotation
					JOINT RightArm
					{
						OFFSET -2.99052 1.57608 -0.69102
						CHANNELS 3 Zrotation Yrotation Xrotation
						JOINT RightForeArm
						{
							OFFSET -5.32214 -0.00000 0.00000
							CHANNELS 3 Zrotation Yrotation Xrotation
							JOINT RightHand
							{
								OFFSET -3.51208 -0.00000 0.00000
								CHANNELS 3 Zrotation Yrotation Xrotation
								JOINT RightFingerBase
								{
									OFFSET 0 0 0
									CHANNELS 3 Zrotation Yrotation Xrotation
									JOINT RightHandIndex1
									{
										OFFSET -0.58668 -0.00000 0.00000
										CHANNELS 3 Zrotation Yrotation Xrotation
										End Site
										{
											OFFSET -0.47300 -0.00000 0.00000
										}
									}
								}
								JOINT RThumb
								{
									OFFSET 0 0 0
									CHANNELS 3 Zrotation Yrotation Xrotation
									End Site
									{
										OFFSET -0.48022 -0.00000 0.48022
									}
								}
							}
						}
					}
				}
			}
		}
	}
}
MOTION
Frames: 9
Frame Time: .0083333
0.3918 15.9937 -3.5807 -1.1354 -5.8323 -0.0876 0.0000 0.0000 0.0000 -13.2629 -3.6024 -32.1947 8.7912 16.6714 55.3651 1.4978 -0.7874 -22.9104 0.2281 -3.0738 -8.4842 0.0000 0.0000 0.0000 16.8847 9.3818 -31.9242 -10.0813 -17.4553 59.7596 -1.6490 3.9501 -23.3300 -0.1160 -2.1955 6.0461 -1.1862 -0.4148 7.4636 1.9567 -0.6357 5.2868 2.7228 -0.3865 1.3144 0.3392 1.6527 -10.8662 -1.6123 2.8056 34.4322 -0.3009 1.0315 13.4275 0.0000 0.0000 0.0000 -86.2421 -22.1550 26.9215 10.6666 -17.7755 -1.6727 -0.0000 0.0000 -17.5449 31.6386 -8.5865 -5.2559 -7.1250 0.0000 -0.0000 3.3972 19.9316 -2.0391 0.0000 0.0000 0.0000 85.9814 15.0291 15.7460 -12.7430 20.9095 -2.3608 0.0000 0.0000 34.2013 -28.0716 -24.1585 12.3126 7.1250 -0.0000 -0.0000 1.4241 -56.9206 -0.4161
0.3986 16.0417 -3.5855 -1.1032 -6.1709 0.4679 0.0000 0.0000 0.0000 -13.3206 -3.4850 -32.4704 8.5981 16.5420 54.6895 1.4640 -0.8767 -22.6195 0.1976 -2.8626 -7.8963 0.0000 0.0000 0.0000 16.8578 9.7998 -31.9778 -9.7842 -17.2867 58.7648 -1.6317 3.7324 -23.2383 -0.1375 -2.3898 6.5842 -1.1337 -0.4459 7.5413 1.9548 -0.6745 5.2610 2.6946 -0.4038 1.2461 0.3574 1.7414 -10.8768 -1.7251 2.9614 34.2963 -0.3262 1.0869 13.3752 -0.0000 0.0000 0.0000 -85.9818 -22.3394 26.3473 10.4889 -17.5007 -1.6189 -0.0000 0.0000 -17.0081 31.6594 -8.5500 -5.2381 -7.1250 0.0000 -0.0000 3.4153 19.9719 -2.0470 -0.0000 0.0000 0.0000 86.0492 14.9414 15.4590 -12.6313 20.7447 -2.3211 0.0000 0.0000 34.5514 -28.0411 -24.0955 12.2681 7.1250 -0.0000 -0.0000 1.4384 -56.8457 -0.4176
0.4050 16.0880 -3.5902 -1.0582 -6.4717 1.0420 0.0000 0.0000 0.0000 -13.3908 -3.4086 -32.7756 8.4122 16.4142 54.0341 1.4297 -0.9675 -22.3216 0.1719 -2.6707 -7.3633 0.0000 0.0000 0.0000 16.8062 10.1847 -32.0552 -9.5002 -17.1191 57.8045 -1.6177 3.5081 -23.1741 -0.1558 -2.5431 7.0091 -1.0872 -0.4889 7.5886 1.9453 -0.7290 5.2293 2.6627 -0.4291 1.1892 0.3849 1.8337 -10.9064 -1.8510 3.1249 34.1744 -0.3570 1.1450 13.3344 0.0000 0.0000 0.0000 -85.7098 -22.5189 25.8203 10.3216 -17.2411 -1.5689 -0.0000 0.0000 -16.4596 31.6393 -8.5103 -5.2100 -7.1250 0.0000 -0.0000 3.4046 20.0201 -2.0369 0.0000 0.0000 0.0000 86.1172 14.8235 15.1716 -12.5353 20.6026 -2.2872 0.0000 0.0000 34.7950 -28.0190 -24.0398 12.2312 7.1250 -0.0000 -0.0000 1.4458 -56.7807 -0.4175
0.4116 16.1325 -3.5950 -0.9958 -6.7564 1.6208 0.0000 0.0000 0.0000 -13.4800 -3.3560 -33.0951 8.2328 16.2878 53.3970 1.3953 -1.0584 -22.0199 0.1496 -2.4924 -6.8686 0.0000 0.0000 0.0000 16.7207 10.5531 -32.1716 -9.2400 -16.9597 56.9163 -1.6016 3.2947 -23.0932 -0.1699 -2.6550 7.3197 -1.0497 -0.5361 7.6220 1.9293 -0.7894 5.1958 2.6295 -0.4574 1.1385 0.3940 1.9266 -10.9254 -1.9730 3.2920 34.0374 -0.3825 1.2033 13.2847 -0.0000 0.0000 0.0000 -85.4347 -22.6926 25.3566 10.1764 -17.0151 -1.5262 -0.0000 0.0000 -15.9932 31.5877 -8.4585 -5.1683 -7.1250 0.0000 -0.0000 3.3725 20.0856 -2.0127 -0.0000 0.0000 0.0000 86.1782 14.6797 14.8900 -12.4547 20.4831 -2.2589 0.0000 0.0000 34.9271 -28.0024 -24.0036 12.2061 7.1250 -0.0000 -0.0000 1.4531 -56.7380 -0.4181
0.4187 16.1754 -3.5996 -0.9148 -7.0384 2.1888 0.0000 0.0000 0.0000 -13.5917 -3.3128 -33.4081 8.0587 16.1623 52.7739 1.3615 -1.1452 -21.7216 0.1299 -2.3228 -6.3987 0.0000 0.0000 0.0000 16.5976 10.9163 -32.3349 -9.0104 -16.8144 56.1260 -1.5783 3.1011 -22.9554 -0.1800 -2.7331 7.5365 -1.0240 -0.5827 7.6482 1.9086 -0.8497 5.1694 2.5979 -0.4862 1.0991 0.3940 2.0198 -10.9496 -2.1045 3.4646 33.8958 -0.4091 1.2618 13.2349 0.0000 0.0000 0.0000 -85.1665 -22.8768 24.9374 10.0514 -16.8200 -1.4898 -0.0000 0.0000 -15.6397 31.4587 -8.4360 -5.1289 -7.1250 0.0000 -0.0000 3.2825 20.1246 -1.9559 0.0000 0.0000 0.0000 86.2282 14.5231 14.6052 -12.3820 20.3751 -2.2335 0.0000 0.0000 34.9823 -27.9982 -23.9880 12.1967 7.1250 -0.0000 -0.0000 1.4529 -56.7201 -0.4174
0.4264 16.2167 -3.6044 -0.8144 -7.3335 2.7338 0.0000 0.0000 0.0000 -13.7281 -3.2620 -33.7056 7.8899 16.0377 52.1652 1.3285 -1.2221 -21.4291 0.1120 -2.1577 -5.9416 0.0000 0.0000 0.0000 16.4359 11.2887 -32.5501 -8.8145 -16.6869 55.4464 -1.5454 2.9383 -22.7381 -0.1872 -2.7868 7.6856 -1.0163 -0.6222 7.6812 1.8835 -0.9019 5.1556 2.5716 -0.5115 1.0687 0.3848 2.1111 -10.9777 -2.2421 3.6384 33.7454 -0.4361 1.3193 13.1827 -0.0000 -0.0000 0.0000 -84.9095 -23.0876 24.5561 9.9429 -16.6503 -1.4586 -0.0000 0.0000 -15.4095 31.2898 -8.4002 -5.0738 -7.1250 0.0000 -0.0000 3.1651 20.1829 -1.8816 -0.0000 -0.0000 0.0000 86.2703 14.3781 14.2778 -12.2986 20.2510 -2.2046 0.0000 0.0000 35.0382 -28.0038 -23.9718 12.1920 7.1250 -0.0000 -0.0000 1.4418 -56.7039 -0.4137
0.4344 16.2560 -3.6090 -0.7019 -7.6478 3.2436 0.0000 0.0000 0.0000 -13.8836 -3.1871 -33.9755 7.7265 15.9144 51.5716 1.2970 -1.2882 -21.1500 0.0958 -1.9957 -5.4937 0.0000 0.0000 0.0000 16.2468 11.6721 -32.8027 -8.6503 -16.5773 54.8725 -1.5036 2.8169 -22.4418 -0.1942 -2.8382 7.8285 -1.0238 -0.6512 7.7301 1.8568 -0.9413 5.1553 2.5515 -0.5309 1.0431 0.3641 2.1983 -11.0052 -2.3784 3.8080 33.5957 -0.4611 1.3739 13.1308 0.0000 0.0000 0.0000 -84.6696 -23.3289 24.2031 9.8424 -16.4926 -1.4299 -0.0000 0.0000 -15.2690 31.0932 -8.3462 -5.0029 -7.1250 0.0000 -0.0000 3.0293 20.2647 -1.7951 0.0000 0.0000 0.0000 86.2938 14.2293 13.9455 -12.2100 20.1188 -2.1740 0.0000 0.0000 35.1131 -28.0079 -23.9721 12.1941 7.1250 -0.0000 -0.0000 1.4374 -56.7051 -0.4125
0.4425 16.2933 -3.6136 -0.5806 -7.9822 3.7079 0.0000 0.0000 0.0000 -14.0558 -3.0758 -34.2110 7.5689 15.7928 50.9946 1.2676 -1.3406 -20.8882 0.0813 -1.8393 -5.0617 0.0000 0.0000 0.0000 16.0414 12.0583 -33.0699 -8.5113 -16.4828 54.3843 -1.4566 2.7400 -22.0911 -0.2019 -2.8931 7.9814 -1.0485 -0.6672 7.8023 1.8278 -0.9648 5.1729 2.5379 -0.5430 1.0227 0.3424 2.2800 -11.0439 -2.5111 3.9690 33.4568 -0.4854 1.4251 13.0862 0.0000 -0.0000 0.0000 -84.4517 -23.6089 23.8388 9.7418 -16.3347 -1.4015 -0.0000 0.0000 -15.1281 30.8902 -8.2808 -4.9246 -7.1250 0.0000 -0.0000 2.8897 20.3599 -1.7060 0.0000 -0.0000 0.0000 86.3036 14.0895 13.5897 -12.1043 19.9608 -2.1378 0.0000 0.0000 35.2594 -27.9988 -23.9844 12.1954 7.1250 -0.0000 -0.0000 1.4511 -56.7163 -0.4168
0.4503 16.3288 -3.6179 -0.4526 -8.3328 4.1200 0.0000 0.0000 0.0000 -14.2444 -2.9222 -34.4053 7.4165 15.6728 50.4326 1.2399 -1.3743 -20.6448 0.0688 -1.6923 -4.6562 0.0000 0.0000 0.0000 15.8296 12.4299 -33.3206 -8.3884 -16.3977 53.9501 -1.4092 2.7097 -21.7223 -0.2106 -2.9549 8.1532 -1.0911 -0.6710 7.9025 1.7950 -0.9735 5.2070 2.5300 -0.5483 1.0035 0.3213 2.3558 -11.0832 -2.6333 4.1177 33.3298 -0.5074 1.4724 13.0467 0.0000 -0.0000 0.0000 -84.2519 -23.9249 23.4623 9.6339 -16.1649 -1.3713 -0.0000 0.0000 -14.9325 30.7069 -8.2077 -4.8464 -7.1250 0.0000 -0.0000 2.7646 20.4618 -1.6256 0.0000 -0.0000 0.0000 86.3009 13.9521 13.2182 -11.9830 19.7792 -2.0965 0.0000 0.0000 35.5037 -27.9701 -24.0130 12.1943 7.1250 -0.0000 -0.0000 1.4917 -56.7408 -0.4293
